<?xml version="1.0" encoding="UTF-8" standalone="no"?>
<!DOCTYPE svg PUBLIC "-//W3C//DTD SVG 1.1//EN"
 "http://www.w3.org/Graphics/SVG/1.1/DTD/svg11.dtd">
<!-- Generated by graphviz version 2.40.1 (20161225.0304)
 -->
<!-- Title: %0 Pages: 1 -->
<svg width="228pt" height="237pt"
 viewBox="0.00 0.00 227.60 236.96" xmlns="http://www.w3.org/2000/svg" xmlns:xlink="http://www.w3.org/1999/xlink">
<g id="graph0" class="graph" transform="scale(1 1) rotate(0) translate(4 232.96)">
<title>%0</title>
<polygon fill="#ffffff" stroke="transparent" points="-4,4 -4,-232.96 223.6,-232.96 223.6,4 -4,4"/>
<!-- 0 -->
<g id="node1" class="node">
<title>0</title>
<ellipse fill="none" stroke="#000000" cx="201.6" cy="-114.48" rx="18" ry="18"/>
<text text-anchor="middle" x="201.6" y="-110.28" font-family="Times,serif" font-size="14.00" fill="#000000">0</text>
</g>
<!-- 2 -->
<g id="node3" class="node">
<title>2</title>
<ellipse fill="none" stroke="#000000" cx="18" cy="-174.24" rx="18" ry="18"/>
<text text-anchor="middle" x="18" y="-170.04" font-family="Times,serif" font-size="14.00" fill="#000000">2</text>
</g>
<!-- 0&#45;&gt;2 -->
<g id="edge2" class="edge">
<title>0&#45;&gt;2</title>
<path fill="none" stroke="#000000" stroke-dasharray="5,2" d="M183.3834,-116.0837C150.4176,-123.4329 80.8813,-145.777 43.3201,-160.8049"/>
<polygon fill="#000000" stroke="#000000" points="41.5223,-157.7617 33.6308,-164.831 44.2083,-164.2259 41.5223,-157.7617"/>
</g>
<!-- 4 -->
<g id="node5" class="node">
<title>4</title>
<ellipse fill="none" stroke="#000000" cx="131.76" cy="-18" rx="18" ry="18"/>
<text text-anchor="middle" x="131.76" y="-13.8" font-family="Times,serif" font-size="14.00" fill="#000000">4</text>
</g>
<!-- 0&#45;&gt;4 -->
<g id="edge1" class="edge">
<title>0&#45;&gt;4</title>
<path fill="none" stroke="#000000" d="M190.9928,-99.8268C179.712,-84.243 161.7109,-59.3755 148.5109,-41.1404"/>
<polygon fill="#000000" stroke="#000000" points="151.1659,-38.8392 142.467,-32.7911 145.4956,-42.9439 151.1659,-38.8392"/>
</g>
<!-- 1 -->
<g id="node2" class="node">
<title>1</title>
<ellipse fill="none" stroke="#000000" cx="131.76" cy="-210.96" rx="18" ry="18"/>
<text text-anchor="middle" x="131.76" y="-206.76" font-family="Times,serif" font-size="14.00" fill="#000000">1</text>
</g>
<!-- 2&#45;&gt;0 -->
<g id="edge3" class="edge">
<title>2&#45;&gt;0</title>
<path fill="none" stroke="#000000" stroke-width="2" d="M36.2166,-172.6363C69.1824,-165.2871 138.7186,-142.943 176.2799,-127.9151"/>
<polygon fill="#000000" stroke="#000000" stroke-width="2" points="178.0777,-130.9583 185.9692,-123.889 175.3917,-124.4941 178.0777,-130.9583"/>
</g>
<!-- 2&#45;&gt;4 -->
<g id="edge4" class="edge">
<title>2&#45;&gt;4</title>
<path fill="none" stroke="#000000" stroke-width="2" d="M28.7023,-159.5413C48.5207,-132.3223 91.0737,-73.8792 114.8344,-41.2459"/>
<polygon fill="#000000" stroke="#000000" stroke-width="2" points="117.9466,-42.9178 121.0033,-32.7734 112.2877,-38.7974 117.9466,-42.9178"/>
</g>
<!-- 3 -->
<g id="node4" class="node">
<title>3</title>
<ellipse fill="#d3d3d3" stroke="#000000" cx="18" cy="-54.72" rx="18" ry="18"/>
<text text-anchor="middle" x="18" y="-50.52" font-family="Times,serif" font-size="14.00" fill="#000000">3</text>
</g>
<!-- 3&#45;&gt;2 -->
<g id="edge5" class="edge">
<title>3&#45;&gt;2</title>
<path fill="none" stroke="#000000" stroke-width="2" d="M18,-72.8725C18,-92.2656 18,-123.2641 18,-145.8811"/>
<polygon fill="#000000" stroke="#000000" stroke-width="2" points="14.5001,-145.9166 18,-155.9167 21.5001,-145.9167 14.5001,-145.9166"/>
</g>
<!-- 4&#45;&gt;3 -->
<g id="edge6" class="edge">
<title>4&#45;&gt;3</title>
<path fill="none" stroke="#000000" stroke-dasharray="5,2" d="M114.4823,-23.577C96.0238,-29.5351 66.5193,-39.0587 44.9922,-46.0073"/>
<polygon fill="#000000" stroke="#000000" points="43.8817,-42.6879 35.4403,-49.0905 46.032,-49.3495 43.8817,-42.6879"/>
</g>
<!-- 4&#45;&gt;4 -->
<g id="edge7" class="edge">
<title>4&#45;&gt;4</title>
<path fill="none" stroke="#000000" d="M148.7973,-24.3792C158.6179,-25.6811 167.76,-23.5547 167.76,-18 167.76,-14.5283 164.1889,-12.3958 159.1129,-11.6025"/>
<polygon fill="#000000" stroke="#000000" points="158.791,-8.1029 148.7973,-11.6208 158.8035,-15.1029 158.791,-8.1029"/>
</g>
</g>
</svg>
